<?xml version="1.0" encoding="UTF-8"?>
<svg width="21px" height="20px" viewBox="0 0 21 20" version="1.1" xmlns="http://www.w3.org/2000/svg" xmlns:xlink="http://www.w3.org/1999/xlink">
    <!-- Generator: sketchtool 41.2 (35397) - http://www.bohemiancoding.com/sketch -->
    <title>1B16D9E5-E195-4B61-BEEA-281849BF71A6</title>
    <desc>Created with sketchtool.</desc>
    <defs></defs>
    <g id="1.-Student-Dashboard" stroke="none" stroke-width="1" fill="none" fill-rule="evenodd">
        <g id="1.1.1-Student-Dashboard" transform="translate(-647.000000, -249.000000)" fill="#4A4A4A">
            <g id="library-books" transform="translate(647.000000, 249.000000)">
                <path d="M17.1529235,5 L7.06296852,5 L7.06296852,3 L17.1529235,3 L17.1529235,5 Z M13.1169415,13 L7.06296852,13 L7.06296852,11 L13.1169415,11 L13.1169415,13 Z M17.1529235,9 L7.06296852,9 L7.06296852,7 L17.1529235,7 L17.1529235,9 Z M18.161919,0 L6.05397301,0 C4.93946736,0 4.03598201,0.8954305 4.03598201,2 L4.03598201,14 C4.03598201,15.1045695 4.93946736,16 6.05397301,16 L18.161919,16 C19.2764247,16 20.17991,15.1045695 20.17991,14 L20.17991,2 C20.17991,0.8954305 19.2764247,0 18.161919,0 L18.161919,0 Z M2.017991,4 L0,4 L0,18 C0,19.1045695 0.903485347,20 2.017991,20 L16.143928,20 L16.143928,18 L2.017991,18 L2.017991,4 Z" id="Shape"></path>
            </g>
        </g>
    </g>
</svg>